HIERARCHY
ROOT Character1_Hips
{
  OFFSET 30.2907 112.535 71.5346
  CHANNELS 6 Xposition Yposition Zposition Zrotation Xrotation Yrotation
  JOINT Character1_Spine
  {
    OFFSET 0 8.754 -1.339
    CHANNELS 3 Zrotation Xrotation Yrotation
    JOINT Character1_Spine1
    {
      OFFSET 0 10.855 -0.645
      CHANNELS 3 Zrotation Xrotation Yrotation
      JOINT Character1_LeftShoulder
      {
        OFFSET 1.467 27.745 1.178
        CHANNELS 3 Zrotation Xrotation Yrotation
        JOINT Character1_LeftArm
        {
          OFFSET 18.486 -1.858 0.275
          CHANNELS 3 Zrotation Xrotation Yrotation
          JOINT Character1_LeftForeArm
          {
            OFFSET 31.798 2.36 2.921
            CHANNELS 3 Zrotation Xrotation Yrotation
            JOINT Character1_LeftHand
            {
              OFFSET 29.001 1.642 2.112
              CHANNELS 3 Zrotation Xrotation Yrotation
              End Site
              {
                OFFSET 7.3734 -1.0302 1.64982
              }
            }
            JOINT ForeArmBoxL
            {
              OFFSET 14.9879 1.12959 0.0233554
              CHANNELS 3 Zrotation Xrotation Yrotation
              End Site
              {
                OFFSET 0 0 0
              }
            }
          }
          JOINT ArmBoxL
          {
            OFFSET 15.8286 1.72374 1.18509
            CHANNELS 3 Zrotation Xrotation Yrotation
            End Site
            {
              OFFSET 0 0 0
            }
          }
        }
        JOINT ShoulderBoxL
        {
          OFFSET 8.34438 1.0846 -0.108247
          CHANNELS 3 Zrotation Xrotation Yrotation
          End Site
          {
            OFFSET 0 0 0
          }
        }
      }
      JOINT Character1_RightShoulder
      {
        OFFSET -1.467 27.745 1.178
        CHANNELS 3 Zrotation Xrotation Yrotation
        JOINT Character1_RightArm
        {
          OFFSET -18.486 -1.858 0.275
          CHANNELS 3 Zrotation Xrotation Yrotation
          JOINT Character1_RightForeArm
          {
            OFFSET -31.798 2.35964 2.92082
            CHANNELS 3 Zrotation Xrotation Yrotation
            JOINT Character1_RightHand
            {
              OFFSET -29.0007 1.64167 2.112
              CHANNELS 3 Zrotation Xrotation Yrotation
              End Site
              {
                OFFSET -7.37366 -1.0295 1.65001
              }
            }
            JOINT ForeArmBoxR
            {
              OFFSET -14.9879 1.12995 0.0235372
              CHANNELS 3 Zrotation Xrotation Yrotation
              End Site
              {
                OFFSET 0 0 0
              }
            }
          }
          JOINT ArmBoxR
          {
            OFFSET -15.8286 1.72374 1.18509
            CHANNELS 3 Zrotation Xrotation Yrotation
            End Site
            {
              OFFSET 0 0 0
            }
          }
        }
        JOINT ShoulderBoxR
        {
          OFFSET -8.34438 1.0846 -0.108247
          CHANNELS 3 Zrotation Xrotation Yrotation
          End Site
          {
            OFFSET 0 0 0
          }
        }
      }
      JOINT Character1_Neck
      {
        OFFSET 0 30.836 0.626
        CHANNELS 3 Zrotation Xrotation Yrotation
        JOINT Character1_Head
        {
          OFFSET 0 8.074 3.498
          CHANNELS 3 Zrotation Xrotation Yrotation
          End Site
          {
            OFFSET 0 8.75051 -0.3664
          }
        }
        JOINT NeckBox
        {
          OFFSET 0 4.52749 1.86245
          CHANNELS 3 Zrotation Xrotation Yrotation
          End Site
          {
            OFFSET 0 0 0
          }
        }
      }
      JOINT TorsoBox
      {
        OFFSET 0 12.7155 1.00402
        CHANNELS 3 Zrotation Xrotation Yrotation
        End Site
        {
          OFFSET 0 0 0
        }
      }
    }
    JOINT SpineBox
    {
      OFFSET 0 5.28258 0.326123
      CHANNELS 3 Zrotation Xrotation Yrotation
      End Site
      {
        OFFSET 0 0 0
      }
    }
  }
  JOINT Character1_RightUpLeg
  {
    OFFSET -9.035 -4.63425 1.845
    CHANNELS 3 Zrotation Xrotation Yrotation
    JOINT Character1_RightLeg
    {
      OFFSET -0.919521 -40.345 1.155
      CHANNELS 3 Zrotation Xrotation Yrotation
      JOINT Character1_RightFoot
      {
        OFFSET 1.95452 -45.2655 -4.18888
        CHANNELS 3 Zrotation Xrotation Yrotation
        JOINT Character1_RightToeBase
        {
          OFFSET 1.87056 -6.69517 14.7145
          CHANNELS 3 Zrotation Xrotation Yrotation
          End Site
          {
            OFFSET 0 0 0
          }
        }
        JOINT TalusBoxR
        {
          OFFSET -0.257548 -3.72327 1.77314
          CHANNELS 3 Zrotation Xrotation Yrotation
          End Site
          {
            OFFSET 0 0 0
          }
        }
        JOINT FootPinkyBoxR
        {
          OFFSET -4.44001 -5.06132 12.2866
          CHANNELS 3 Zrotation Xrotation Yrotation
          End Site
          {
            OFFSET 0 0 0
          }
        }
        JOINT FootThumbBoxR
        {
          OFFSET 0.350101 -5.07916 13.5666
          CHANNELS 3 Zrotation Xrotation Yrotation
          End Site
          {
            OFFSET 0 0 0
          }
        }
      }
      JOINT TibiaBoxR
      {
        OFFSET 0.679521 -22.8458 -3.405
        CHANNELS 3 Zrotation Xrotation Yrotation
        End Site
        {
          OFFSET 0 0 0
        }
      }
    }
    JOINT FemurBoxR
    {
      OFFSET -0.557975 -20.9557 -1.11465
      CHANNELS 3 Zrotation Xrotation Yrotation
      End Site
      {
        OFFSET 0 0 0
      }
    }
  }
  JOINT Character1_LeftUpLeg
  {
    OFFSET 9.035 -4.63425 1.845
    CHANNELS 3 Zrotation Xrotation Yrotation
    JOINT Character1_LeftLeg
    {
      OFFSET 0.919521 -40.345 1.155
      CHANNELS 3 Zrotation Xrotation Yrotation
      JOINT Character1_LeftFoot
      {
        OFFSET -1.95452 -45.2655 -4.18888
        CHANNELS 3 Zrotation Xrotation Yrotation
        JOINT Character1_LeftToeBase
        {
          OFFSET -1.87056 -6.69517 14.7145
          CHANNELS 3 Zrotation Xrotation Yrotation
          End Site
          {
            OFFSET 0 0 0
          }
        }
        JOINT FootThumbBoxL
        {
          OFFSET -0.350101 -5.07916 13.5666
          CHANNELS 3 Zrotation Xrotation Yrotation
          End Site
          {
            OFFSET 0 0 0
          }
        }
        JOINT FootPinkyBoxL
        {
          OFFSET 4.44001 -5.06132 12.2866
          CHANNELS 3 Zrotation Xrotation Yrotation
          End Site
          {
            OFFSET 0 0 0
          }
        }
        JOINT TalusBoxL
        {
          OFFSET 0.257548 -3.72327 1.77314
          CHANNELS 3 Zrotation Xrotation Yrotation
          End Site
          {
            OFFSET 0 0 0
          }
        }
      }
      JOINT TibiaBoxL
      {
        OFFSET -0.679521 -22.8458 -3.405
        CHANNELS 3 Zrotation Xrotation Yrotation
        End Site
        {
          OFFSET 0 0 0
        }
      }
    }
    JOINT FemurBoxL
    {
      OFFSET 0.557975 -20.9557 -1.11465
      CHANNELS 3 Zrotation Xrotation Yrotation
      End Site
      {
        OFFSET 0 0 0
      }
    }
  }
  JOINT PelvisBox
  {
    OFFSET 0 0.0930822 -0.0838296
    CHANNELS 3 Zrotation Xrotation Yrotation
    End Site
    {
      OFFSET 0 0 0
    }
  }
}
MOTION
Frames:	8
Frame Time:	0.00833333
32.8647 80.9959 248.6 -8.58193 -4.21386 -166.32 1.78906e-15 7.95139e-16 1.59028e-15 -8.82754 -0.00255863 -1.68195 8.62283e-07 -2.75072e-08 -4.07794e-07 -79.8287 40.5694 32.3489 -5.12671 0.928752 -78.7051 -0.636473 2.96797 4.2058 -13.2576 -68.9783 -17.331 -6.92027 -72.5829 -11.2678 0.27423 -0.0473218 3.14463 8.62283e-07 -2.75072e-08 -4.07794e-07 94.5355 -22.4259 -36.7148 -4.04931 4.65996 83.0257 -3.68253 4.67745 7.77279 -166.742 68.9783 162.669 -173.08 72.5829 168.732 179.726 0.0473218 -176.855 -0 -3.97569e-16 -0 9.93923e-17 0 -0 -1.68195 9.84052 10.8467 7.53902e-17 0.528321 1.41507e-15 -11.6263 0.723847 -0.7583 -9.19192 -5.82508 5.67532 -0.457638 30.9619 1.27648 3.23757 -14.0322 11.7805 -0.368455 -2.84037 -0.077041 -178.531 -1.41374 -167.997 -179.276 -0.600381 -160.082 179.447 -1.12556 -169.995 -178 -5 -180 179.002 0.985149 179.879 -11.7506 1.33709 17.1724 -0.31898 -2.26432 0.697291 -9.41375 -0.558191 -3.06499 25.359 37.9182 -6.31483 0.553385 1.12556 10.0051 -0.724387 0.600381 19.9179 -1.46875 1.41374 12.0028 -2 5 -0 0.99792 -0.985149 -0.120973 1.83273e-15 1.75037e-15 -0 
32.771 80.9889 248.458 -8.65253 -4.17557 -166.403 -1.98785e-16 0 1.59028e-15 -9.02116 0.103056 -1.73875 8.62283e-07 -2.75072e-08 -4.07794e-07 -79.9985 39.8754 32.8259 -5.084 0.94142 -78.6892 -0.698261 2.95075 4.49703 -13.2576 -68.9783 -17.331 -6.92027 -72.5829 -11.2678 0.27423 -0.0473218 3.14463 8.62283e-07 -2.75072e-08 -4.07794e-07 94.7136 -22.2625 -36.8045 -3.99842 4.63768 83.0282 -3.73618 4.69576 7.89352 -166.742 68.9783 162.669 -173.08 72.5829 168.732 179.726 0.0473218 -176.855 -2.20695e-32 -3.97569e-16 -3.18055e-15 -1.98785e-16 -3.97569e-16 -4.77083e-15 -1.62469 10.5 10.0917 1.30481e-17 0.528321 -1.41507e-15 -11.7964 1.00852 -0.79177 -9.25391 -7.51604 4.81605 -0.344029 33.6847 1.30482 2.89849 -15.0591 10.8152 -0.45545 -3.50515 -0.0976706 -178.531 -1.41374 -167.997 -179.276 -0.600381 -160.082 179.447 -1.12556 -169.995 -178 -5 180 179.002 0.985149 179.879 -11.8329 1.5174 17.2836 -0.351427 -2.31057 0.691563 -9.44838 -0.606932 -3.14736 25.5265 38.097 -6.40594 0.553385 1.12556 10.0051 -0.724387 0.600381 19.9179 -1.46875 1.41374 12.0028 -2 5 -9.49829e-15 0.99792 -0.985149 -0.120973 1.68e-15 8.75185e-16 2.44364e-15 
32.6467 80.9698 248.275 -8.78419 -4.11718 -166.466 -9.93923e-16 -7.95139e-16 -0 -9.19237 0.60049 -1.93929 8.62283e-07 -2.75072e-08 -4.07794e-07 -80.034 38.9287 32.9543 -5.03509 0.959137 -78.6957 -0.85928 2.90502 5.25853 -13.2576 -68.9783 -17.331 -6.92027 -72.5829 -11.2678 0.27423 -0.0473218 3.14463 8.62283e-07 -2.75072e-08 -4.07794e-07 95.014 -21.9425 -36.6142 -3.85876 4.56893 83.2108 -3.68352 4.67823 7.77494 -166.742 68.9783 162.669 -173.08 72.5829 168.732 179.726 0.0473218 -176.855 9.93923e-17 0 1.59028e-15 9.93923e-17 0 1.59028e-15 -1.67703 10.6035 9.56295 7.53902e-17 0.528321 1.41507e-15 -11.9832 1.49123 -0.931796 -9.42788 -8.89576 3.97859 -0.258902 35.6928 1.32582 2.71266 -15.6238 10.3172 -0.344242 -2.65467 -0.0713609 -178.531 -1.41374 -167.997 -179.276 -0.600381 -160.082 179.447 -1.12556 -169.995 -178 -5 -180 179.002 0.985149 179.879 -11.9742 1.82969 17.4196 -0.44547 -2.44725 0.671111 -9.46771 -0.653718 -3.23171 25.7116 38.2935 -6.50733 0.553385 1.12556 10.0051 -0.724387 0.600381 19.9179 -1.46875 1.41374 12.0028 -2 5 6.33219e-15 0.99792 -0.985149 -0.120973 -9.16363e-16 -8.75185e-16 -0 
32.5426 80.9508 248.057 -8.89381 -4.07825 -166.493 -3.77691e-15 7.95139e-16 1.59028e-15 -9.37599 0.68342 -2.12345 8.62283e-07 -2.75072e-08 -4.07794e-07 -80.2091 38.124 33.4144 -4.85898 1.01494 -78.6595 -0.918128 2.88682 5.53712 -13.2576 -68.9783 -17.331 -6.92027 -72.5829 -11.2678 0.27423 -0.0473218 3.14463 8.62283e-07 -2.75072e-08 -4.07794e-07 95.215 -21.6378 -36.692 -3.64661 4.47777 83.2102 -3.52443 4.62192 7.41682 -166.742 68.9783 162.669 -173.08 72.5829 168.732 179.726 0.0473218 -176.855 -4.41391e-32 -7.95139e-16 -3.18055e-15 -9.93923e-17 -1.19271e-15 -3.18055e-15 -1.363 11.5359 8.78731 1.30481e-17 0.528321 -1.41507e-15 -12.2009 1.77116 -1.0623 -9.5823 -10.3333 3.14714 -0.182398 37.4393 1.34457 2.57074 -16.1581 9.92993 -0.330301 -2.54785 -0.0682058 -178.531 -1.41374 -167.997 -179.276 -0.600381 -160.082 179.447 -1.12556 -169.995 -178 -5 -180 179.002 0.985149 179.879 -12.081 2.12003 17.4904 -0.527962 -2.57302 0.653424 -9.49647 -0.718215 -3.30555 25.8022 38.3892 -6.5571 0.553385 1.12556 10.0051 -0.724387 0.600381 19.9179 -1.46875 1.41374 12.0028 -2 5 -3.1661e-15 0.99792 -0.985149 -0.120973 -2.90182e-15 -8.75185e-16 -2.44364e-15 
32.435 80.9296 247.846 -8.98823 -4.04066 -166.517 3.97569e-16 -1.59028e-15 -1.59028e-15 -9.52154 0.901487 -2.34083 8.62283e-07 -2.75072e-08 -4.07794e-07 -80.3307 37.2271 33.7762 -4.69672 1.0731 -78.6747 -0.986723 2.866 5.86271 -13.2576 -68.9783 -17.331 -6.92027 -72.5829 -11.2678 0.27423 -0.0473218 3.14463 8.62283e-07 -2.75072e-08 -4.07794e-07 95.4208 -21.3011 -36.7448 -3.48423 4.40186 83.3736 -3.41769 4.5844 7.17597 -166.742 68.9783 162.669 -173.08 72.5829 168.732 179.726 0.0473218 -176.855 -9.93923e-17 1.19271e-15 -0 -9.93923e-17 7.95139e-16 1.59028e-15 -1.16516 12.1419 8.08938 -8.84384e-17 0.528321 -0 -12.3803 2.10823 -1.21804 -9.75168 -11.6084 2.32888 -0.11673 38.9142 1.35063 2.40531 -16.5589 9.49514 -0.313768 -2.42094 -0.0644911 -178.531 -1.41374 -167.997 -179.276 -0.600381 -160.082 179.447 -1.12556 -169.995 -178 -5 180 179.002 0.985149 179.879 -12.1733 2.41624 17.5587 -0.622745 -2.7166 0.631697 -9.50986 -0.764795 -3.3746 25.9404 38.5347 -6.63329 0.553385 1.12556 10.0051 -0.724387 0.600381 19.9179 -1.46875 1.41374 12.0028 -2 5 3.1661e-15 0.99792 -0.985149 -0.120973 -3.05454e-16 -8.75185e-16 -0 
32.3295 80.9026 247.616 -9.06255 -4.00952 -166.527 9.93923e-16 -7.95139e-16 -0 -9.63426 1.12474 -2.58382 8.62283e-07 -2.75072e-08 -4.07794e-07 -80.4461 36.2969 34.0935 -4.48604 1.13924 -78.6245 -1.04234 2.84788 6.12662 -13.2576 -68.9783 -17.331 -6.92027 -72.5829 -11.2678 0.27423 -0.0473218 3.14463 8.62283e-07 -2.75072e-08 -4.07794e-07 95.6122 -20.9354 -36.7857 -3.30881 4.32272 83.5035 -3.29779 4.54141 6.90511 -166.742 68.9783 162.669 -173.08 72.5829 168.732 179.726 0.0473218 -176.855 -9.93923e-17 3.97569e-16 1.59028e-15 -1.98785e-16 0 -0 -0.933282 12.7338 7.38921 -1.01486e-16 0.528321 1.41507e-15 -12.5344 2.43535 -1.39419 -9.91057 -12.7975 1.52718 -0.0667122 40.0591 1.35332 2.27854 -16.8451 9.16408 -0.304057 -2.34612 -0.062288 -178.531 -1.41374 -167.997 -179.276 -0.600381 -160.082 179.447 -1.12556 -169.995 -178 -5 180 179.002 0.985149 179.879 -12.2445 2.70878 17.5975 -0.708933 -2.85082 0.612103 -9.52751 -0.829442 -3.42366 26.0536 38.6532 -6.696 0.553385 1.12556 10.0051 -0.724387 0.600381 19.9179 -1.46875 1.41374 12.0028 -2 5 -6.33219e-15 0.99792 -0.985149 -0.120973 7.63636e-16 0 -0 
32.228 80.8729 247.368 -9.1065 -3.99227 -166.521 1.59028e-15 0 -1.59028e-15 -9.70916 1.30997 -2.84704 8.62283e-07 -2.75072e-08 -4.07794e-07 -80.5728 35.367 34.4044 -4.22787 1.21453 -78.5121 -1.08015 2.83419 6.30572 -13.2576 -68.9783 -17.331 -6.92027 -72.5829 -11.2678 0.27423 -0.0473218 3.14463 8.62283e-07 -2.75072e-08 -4.07794e-07 95.7719 -20.542 -36.8252 -3.12092 4.24193 83.5398 -3.17163 4.49482 6.61983 -166.742 68.9783 162.669 -173.08 72.5829 168.732 179.726 0.0473218 -176.855 -1.98785e-16 -7.95139e-16 -3.18055e-15 -1.98785e-16 -7.95139e-16 -3.18055e-15 -0.734644 13.3175 6.7117 -1.5078e-16 0.528321 -2.83015e-15 -12.6561 2.72594 -1.58789 -10.0473 -13.9437 0.736602 -0.0288901 40.9566 1.35467 2.1811 -17.0771 8.908 -0.305786 -2.36007 -0.0610323 -178.531 -1.41374 -167.997 -179.276 -0.600381 -160.082 179.447 -1.12556 -169.995 -178 -5 180 179.002 0.985149 179.879 -12.2867 2.98032 17.6005 -0.781141 -2.96557 0.595796 -9.55072 -0.91219 -3.4532 26.1447 38.7483 -6.74656 0.553385 1.12556 10.0051 -0.724387 0.600381 19.9179 -1.46875 1.41374 12.0028 -2 5 -0 0.99792 -0.985149 -0.120973 2.13818e-15 0 -0 
32.1301 80.8443 247.104 -9.11731 -3.98844 -166.502 3.97569e-16 1.59028e-15 -3.18055e-15 -9.74652 1.4963 -3.11881 8.62283e-07 -2.75072e-08 -4.07794e-07 -80.693 34.4269 34.7308 -3.92664 1.31345 -78.4622 -1.10676 2.82449 6.43197 -13.2576 -68.9783 -17.331 -6.92027 -72.5829 -11.2678 0.27423 -0.0473218 3.14463 8.62283e-07 -2.75072e-08 -4.07794e-07 95.905 -20.1305 -36.9035 -2.94639 4.16539 83.6418 -3.05447 4.45139 6.35449 -166.742 68.9783 162.669 -173.08 72.5829 168.732 179.726 0.0473218 -176.855 -4.41391e-32 7.95139e-16 3.18055e-15 9.93923e-17 7.95139e-16 1.59028e-15 -0.576288 13.834 6.0723 -1.30481e-17 0.528321 1.41507e-15 -12.7375 2.99477 -1.78981 -10.1564 -15.0345 -0.0380638 -0.00707046 41.5736 1.35516 2.11564 -17.238 8.73223 -0.305218 -2.3841 -0.0602899 -178.531 -1.41374 -167.997 -179.276 -0.600381 -160.082 179.447 -1.12556 -169.995 -178 -5 -180 179.002 0.985149 179.879 -12.296 3.23442 17.5697 -0.843555 -3.06683 0.581826 -9.57596 -1.01484 -3.4559 26.1914 38.7956 -6.77187 0.553385 1.12556 10.0051 -0.724387 0.600381 19.9179 -1.46875 1.41374 12.0028 -2 5 3.1661e-15 0.99792 -0.985149 -0.120973 4.58182e-16 8.75185e-16 -4.88727e-15 
